<mxfile host="app.diagrams.net" modified="2024-08-10T10:53:57.603Z" agent="Mozilla/5.0 (Windows NT 10.0; Win64; x64) AppleWebKit/537.36 (KHTML, like Gecko) Chrome/125.0.0.0 Safari/537.36 OPR/111.0.0.0" etag="kB7Z93eIcSDz80mmWDCD" version="24.4.10" type="device">
  <diagram name="Page-1" id="tGig4PnMDk6VrNJtW51t">
    <mxGraphModel dx="1668" dy="456" grid="1" gridSize="10" guides="1" tooltips="1" connect="1" arrows="1" fold="1" page="1" pageScale="1" pageWidth="827" pageHeight="1169" math="0" shadow="0">
      <root>
        <mxCell id="0" />
        <mxCell id="1" parent="0" />
        <mxCell id="XceYk_KUCut2cU4rTJV0-29" style="edgeStyle=orthogonalEdgeStyle;rounded=0;orthogonalLoop=1;jettySize=auto;html=1;exitX=0;exitY=0.75;exitDx=0;exitDy=0;entryX=0.25;entryY=1;entryDx=0;entryDy=0;" edge="1" parent="1" source="XceYk_KUCut2cU4rTJV0-1" target="XceYk_KUCut2cU4rTJV0-8">
          <mxGeometry relative="1" as="geometry" />
        </mxCell>
        <mxCell id="XceYk_KUCut2cU4rTJV0-31" value="User/post data" style="edgeLabel;html=1;align=center;verticalAlign=middle;resizable=0;points=[];fontSize=9;" vertex="1" connectable="0" parent="XceYk_KUCut2cU4rTJV0-29">
          <mxGeometry x="-0.1587" relative="1" as="geometry">
            <mxPoint x="31" as="offset" />
          </mxGeometry>
        </mxCell>
        <mxCell id="XceYk_KUCut2cU4rTJV0-1" value="Firestore&lt;br&gt;Database" style="rounded=0;whiteSpace=wrap;html=1;" vertex="1" parent="1">
          <mxGeometry x="100" y="440" width="120" height="60" as="geometry" />
        </mxCell>
        <mxCell id="XceYk_KUCut2cU4rTJV0-25" style="edgeStyle=orthogonalEdgeStyle;rounded=0;orthogonalLoop=1;jettySize=auto;html=1;exitX=0;exitY=0.75;exitDx=0;exitDy=0;entryX=1;entryY=0.75;entryDx=0;entryDy=0;" edge="1" parent="1" source="XceYk_KUCut2cU4rTJV0-2" target="XceYk_KUCut2cU4rTJV0-8">
          <mxGeometry relative="1" as="geometry" />
        </mxCell>
        <mxCell id="XceYk_KUCut2cU4rTJV0-26" value="Authentication&lt;br style=&quot;font-size: 9px;&quot;&gt;services" style="edgeLabel;html=1;align=center;verticalAlign=middle;resizable=0;points=[];fontSize=9;" vertex="1" connectable="0" parent="XceYk_KUCut2cU4rTJV0-25">
          <mxGeometry x="-0.1624" relative="1" as="geometry">
            <mxPoint x="-11" as="offset" />
          </mxGeometry>
        </mxCell>
        <mxCell id="XceYk_KUCut2cU4rTJV0-2" value="Firebase&lt;br&gt;Authentication" style="rounded=0;whiteSpace=wrap;html=1;" vertex="1" parent="1">
          <mxGeometry x="100" y="320" width="120" height="60" as="geometry" />
        </mxCell>
        <mxCell id="XceYk_KUCut2cU4rTJV0-32" style="edgeStyle=orthogonalEdgeStyle;rounded=0;orthogonalLoop=1;jettySize=auto;html=1;exitX=0.25;exitY=0;exitDx=0;exitDy=0;entryX=1;entryY=0.5;entryDx=0;entryDy=0;" edge="1" parent="1" source="XceYk_KUCut2cU4rTJV0-4" target="XceYk_KUCut2cU4rTJV0-2">
          <mxGeometry relative="1" as="geometry" />
        </mxCell>
        <mxCell id="XceYk_KUCut2cU4rTJV0-34" value="Hosting services" style="edgeLabel;html=1;align=center;verticalAlign=middle;resizable=0;points=[];fontSize=9;" vertex="1" connectable="0" parent="XceYk_KUCut2cU4rTJV0-32">
          <mxGeometry x="0.182" y="-2" relative="1" as="geometry">
            <mxPoint y="2" as="offset" />
          </mxGeometry>
        </mxCell>
        <mxCell id="XceYk_KUCut2cU4rTJV0-33" style="edgeStyle=orthogonalEdgeStyle;rounded=0;orthogonalLoop=1;jettySize=auto;html=1;exitX=0.25;exitY=1;exitDx=0;exitDy=0;entryX=1;entryY=0.5;entryDx=0;entryDy=0;" edge="1" parent="1" source="XceYk_KUCut2cU4rTJV0-4" target="XceYk_KUCut2cU4rTJV0-1">
          <mxGeometry relative="1" as="geometry" />
        </mxCell>
        <mxCell id="XceYk_KUCut2cU4rTJV0-36" value="Hosting services" style="edgeLabel;html=1;align=center;verticalAlign=middle;resizable=0;points=[];fontSize=9;" vertex="1" connectable="0" parent="XceYk_KUCut2cU4rTJV0-33">
          <mxGeometry x="0.2167" y="-4" relative="1" as="geometry">
            <mxPoint y="4" as="offset" />
          </mxGeometry>
        </mxCell>
        <mxCell id="XceYk_KUCut2cU4rTJV0-4" value="Firebase&lt;br&gt;Hosting" style="rounded=0;whiteSpace=wrap;html=1;" vertex="1" parent="1">
          <mxGeometry x="360" y="380" width="120" height="60" as="geometry" />
        </mxCell>
        <mxCell id="XceYk_KUCut2cU4rTJV0-5" value="Github" style="rounded=0;whiteSpace=wrap;html=1;" vertex="1" parent="1">
          <mxGeometry x="570" y="200" width="120" height="60" as="geometry" />
        </mxCell>
        <mxCell id="XceYk_KUCut2cU4rTJV0-11" style="edgeStyle=orthogonalEdgeStyle;rounded=0;orthogonalLoop=1;jettySize=auto;html=1;exitX=1;exitY=0.25;exitDx=0;exitDy=0;entryX=0;entryY=0.25;entryDx=0;entryDy=0;" edge="1" parent="1" source="XceYk_KUCut2cU4rTJV0-7" target="XceYk_KUCut2cU4rTJV0-9">
          <mxGeometry relative="1" as="geometry" />
        </mxCell>
        <mxCell id="XceYk_KUCut2cU4rTJV0-12" value="Resource&lt;br&gt;requests" style="edgeLabel;html=1;align=center;verticalAlign=middle;resizable=0;points=[];fontSize=9;" vertex="1" connectable="0" parent="XceYk_KUCut2cU4rTJV0-11">
          <mxGeometry x="0.2222" y="2" relative="1" as="geometry">
            <mxPoint x="-16" y="7" as="offset" />
          </mxGeometry>
        </mxCell>
        <mxCell id="XceYk_KUCut2cU4rTJV0-17" style="edgeStyle=orthogonalEdgeStyle;rounded=0;orthogonalLoop=1;jettySize=auto;html=1;exitX=0.75;exitY=1;exitDx=0;exitDy=0;entryX=0.75;entryY=0;entryDx=0;entryDy=0;" edge="1" parent="1" source="XceYk_KUCut2cU4rTJV0-6" target="XceYk_KUCut2cU4rTJV0-7">
          <mxGeometry relative="1" as="geometry" />
        </mxCell>
        <mxCell id="XceYk_KUCut2cU4rTJV0-18" value="UI requests" style="edgeLabel;html=1;align=center;verticalAlign=middle;resizable=0;points=[];fontSize=9;" vertex="1" connectable="0" parent="XceYk_KUCut2cU4rTJV0-17">
          <mxGeometry x="-0.2254" y="-1" relative="1" as="geometry">
            <mxPoint y="7" as="offset" />
          </mxGeometry>
        </mxCell>
        <mxCell id="XceYk_KUCut2cU4rTJV0-45" style="edgeStyle=orthogonalEdgeStyle;rounded=0;orthogonalLoop=1;jettySize=auto;html=1;exitX=1;exitY=0.25;exitDx=0;exitDy=0;entryX=0;entryY=0.25;entryDx=0;entryDy=0;" edge="1" parent="1" source="XceYk_KUCut2cU4rTJV0-6" target="XceYk_KUCut2cU4rTJV0-44">
          <mxGeometry relative="1" as="geometry" />
        </mxCell>
        <mxCell id="XceYk_KUCut2cU4rTJV0-48" value="Platform request" style="edgeLabel;html=1;align=center;verticalAlign=middle;resizable=0;points=[];fontSize=9;" vertex="1" connectable="0" parent="XceYk_KUCut2cU4rTJV0-45">
          <mxGeometry x="-0.0041" y="-1" relative="1" as="geometry">
            <mxPoint as="offset" />
          </mxGeometry>
        </mxCell>
        <mxCell id="XceYk_KUCut2cU4rTJV0-6" value="Desktop/Mobile&lt;br&gt;View (Flutter)" style="rounded=0;whiteSpace=wrap;html=1;" vertex="1" parent="1">
          <mxGeometry x="-160" y="80" width="120" height="60" as="geometry" />
        </mxCell>
        <mxCell id="XceYk_KUCut2cU4rTJV0-15" style="edgeStyle=orthogonalEdgeStyle;rounded=0;orthogonalLoop=1;jettySize=auto;html=1;exitX=0.25;exitY=0;exitDx=0;exitDy=0;entryX=0.25;entryY=1;entryDx=0;entryDy=0;" edge="1" parent="1" source="XceYk_KUCut2cU4rTJV0-7" target="XceYk_KUCut2cU4rTJV0-6">
          <mxGeometry relative="1" as="geometry" />
        </mxCell>
        <mxCell id="XceYk_KUCut2cU4rTJV0-16" value="&lt;font style=&quot;font-size: 9px;&quot;&gt;UI updates&lt;/font&gt;" style="edgeLabel;html=1;align=center;verticalAlign=middle;resizable=0;points=[];fontSize=9;" vertex="1" connectable="0" parent="XceYk_KUCut2cU4rTJV0-15">
          <mxGeometry x="0.0349" y="1" relative="1" as="geometry">
            <mxPoint y="1" as="offset" />
          </mxGeometry>
        </mxCell>
        <mxCell id="XceYk_KUCut2cU4rTJV0-19" style="edgeStyle=orthogonalEdgeStyle;rounded=0;orthogonalLoop=1;jettySize=auto;html=1;exitX=0.25;exitY=1;exitDx=0;exitDy=0;entryX=0.25;entryY=0;entryDx=0;entryDy=0;" edge="1" parent="1" source="XceYk_KUCut2cU4rTJV0-7" target="XceYk_KUCut2cU4rTJV0-8">
          <mxGeometry relative="1" as="geometry" />
        </mxCell>
        <mxCell id="XceYk_KUCut2cU4rTJV0-20" value="API requests" style="edgeLabel;html=1;align=center;verticalAlign=middle;resizable=0;points=[];fontSize=9;" vertex="1" connectable="0" parent="XceYk_KUCut2cU4rTJV0-19">
          <mxGeometry x="-0.1238" y="-1" relative="1" as="geometry">
            <mxPoint y="4" as="offset" />
          </mxGeometry>
        </mxCell>
        <mxCell id="XceYk_KUCut2cU4rTJV0-7" value="Desktop/Mobile Backend (Dart)" style="rounded=0;whiteSpace=wrap;html=1;" vertex="1" parent="1">
          <mxGeometry x="-160" y="200" width="120" height="60" as="geometry" />
        </mxCell>
        <mxCell id="XceYk_KUCut2cU4rTJV0-21" style="edgeStyle=orthogonalEdgeStyle;rounded=0;orthogonalLoop=1;jettySize=auto;html=1;exitX=0.75;exitY=0;exitDx=0;exitDy=0;entryX=0.75;entryY=1;entryDx=0;entryDy=0;" edge="1" parent="1" source="XceYk_KUCut2cU4rTJV0-8" target="XceYk_KUCut2cU4rTJV0-7">
          <mxGeometry relative="1" as="geometry" />
        </mxCell>
        <mxCell id="XceYk_KUCut2cU4rTJV0-22" value="&lt;font style=&quot;font-size: 9px;&quot;&gt;Request&lt;br&gt;responses&lt;/font&gt;" style="edgeLabel;html=1;align=center;verticalAlign=middle;resizable=0;points=[];" vertex="1" connectable="0" parent="XceYk_KUCut2cU4rTJV0-21">
          <mxGeometry x="-0.1302" y="1" relative="1" as="geometry">
            <mxPoint y="-4" as="offset" />
          </mxGeometry>
        </mxCell>
        <mxCell id="XceYk_KUCut2cU4rTJV0-23" style="edgeStyle=orthogonalEdgeStyle;rounded=0;orthogonalLoop=1;jettySize=auto;html=1;exitX=1;exitY=0.25;exitDx=0;exitDy=0;entryX=0;entryY=0.25;entryDx=0;entryDy=0;" edge="1" parent="1" source="XceYk_KUCut2cU4rTJV0-8" target="XceYk_KUCut2cU4rTJV0-2">
          <mxGeometry relative="1" as="geometry" />
        </mxCell>
        <mxCell id="XceYk_KUCut2cU4rTJV0-24" value="User authentication &lt;br style=&quot;font-size: 9px;&quot;&gt;requests" style="edgeLabel;html=1;align=center;verticalAlign=middle;resizable=0;points=[];fontSize=9;" vertex="1" connectable="0" parent="XceYk_KUCut2cU4rTJV0-23">
          <mxGeometry x="0.2278" y="-2" relative="1" as="geometry">
            <mxPoint x="-16" as="offset" />
          </mxGeometry>
        </mxCell>
        <mxCell id="XceYk_KUCut2cU4rTJV0-28" style="edgeStyle=orthogonalEdgeStyle;rounded=0;orthogonalLoop=1;jettySize=auto;html=1;exitX=0.75;exitY=1;exitDx=0;exitDy=0;entryX=0;entryY=0.25;entryDx=0;entryDy=0;" edge="1" parent="1" source="XceYk_KUCut2cU4rTJV0-8" target="XceYk_KUCut2cU4rTJV0-1">
          <mxGeometry relative="1" as="geometry" />
        </mxCell>
        <mxCell id="XceYk_KUCut2cU4rTJV0-30" value="Data requests" style="edgeLabel;html=1;align=center;verticalAlign=middle;resizable=0;points=[];fontSize=9;" vertex="1" connectable="0" parent="XceYk_KUCut2cU4rTJV0-28">
          <mxGeometry x="-0.0057" y="-1" relative="1" as="geometry">
            <mxPoint x="33" as="offset" />
          </mxGeometry>
        </mxCell>
        <mxCell id="XceYk_KUCut2cU4rTJV0-8" value="Firebase&lt;br&gt;API" style="rounded=0;whiteSpace=wrap;html=1;" vertex="1" parent="1">
          <mxGeometry x="-160" y="320" width="120" height="60" as="geometry" />
        </mxCell>
        <mxCell id="XceYk_KUCut2cU4rTJV0-13" style="edgeStyle=orthogonalEdgeStyle;rounded=0;orthogonalLoop=1;jettySize=auto;html=1;exitX=0;exitY=0.75;exitDx=0;exitDy=0;entryX=1;entryY=0.75;entryDx=0;entryDy=0;" edge="1" parent="1">
          <mxGeometry relative="1" as="geometry">
            <mxPoint x="100" y="250" as="sourcePoint" />
            <mxPoint x="-40" y="250" as="targetPoint" />
            <Array as="points">
              <mxPoint x="80" y="250" />
              <mxPoint x="80" y="250" />
            </Array>
          </mxGeometry>
        </mxCell>
        <mxCell id="XceYk_KUCut2cU4rTJV0-14" value="Resource&lt;br&gt;files" style="edgeLabel;html=1;align=center;verticalAlign=middle;resizable=0;points=[];fontSize=9;" vertex="1" connectable="0" parent="XceYk_KUCut2cU4rTJV0-13">
          <mxGeometry x="0.2224" y="-1" relative="1" as="geometry">
            <mxPoint x="16" y="1" as="offset" />
          </mxGeometry>
        </mxCell>
        <mxCell id="XceYk_KUCut2cU4rTJV0-39" style="edgeStyle=orthogonalEdgeStyle;rounded=0;orthogonalLoop=1;jettySize=auto;html=1;exitX=1;exitY=0.25;exitDx=0;exitDy=0;entryX=0;entryY=0.25;entryDx=0;entryDy=0;" edge="1" parent="1" source="XceYk_KUCut2cU4rTJV0-9" target="XceYk_KUCut2cU4rTJV0-37">
          <mxGeometry relative="1" as="geometry" />
        </mxCell>
        <mxCell id="XceYk_KUCut2cU4rTJV0-42" value="Testing requests" style="edgeLabel;html=1;align=center;verticalAlign=middle;resizable=0;points=[];fontSize=9;" vertex="1" connectable="0" parent="XceYk_KUCut2cU4rTJV0-39">
          <mxGeometry x="-0.0056" relative="1" as="geometry">
            <mxPoint as="offset" />
          </mxGeometry>
        </mxCell>
        <mxCell id="XceYk_KUCut2cU4rTJV0-50" style="edgeStyle=orthogonalEdgeStyle;rounded=0;orthogonalLoop=1;jettySize=auto;html=1;exitX=0.25;exitY=0;exitDx=0;exitDy=0;entryX=0.25;entryY=1;entryDx=0;entryDy=0;" edge="1" parent="1" source="XceYk_KUCut2cU4rTJV0-9" target="XceYk_KUCut2cU4rTJV0-44">
          <mxGeometry relative="1" as="geometry" />
        </mxCell>
        <mxCell id="XceYk_KUCut2cU4rTJV0-52" value="Version&lt;br style=&quot;font-size: 9px;&quot;&gt;control" style="edgeLabel;html=1;align=center;verticalAlign=middle;resizable=0;points=[];fontSize=9;" vertex="1" connectable="0" parent="XceYk_KUCut2cU4rTJV0-50">
          <mxGeometry x="0.1556" relative="1" as="geometry">
            <mxPoint y="5" as="offset" />
          </mxGeometry>
        </mxCell>
        <mxCell id="XceYk_KUCut2cU4rTJV0-9" value="Github&lt;br&gt;Storage" style="rounded=0;whiteSpace=wrap;html=1;" vertex="1" parent="1">
          <mxGeometry x="100" y="200" width="120" height="60" as="geometry" />
        </mxCell>
        <mxCell id="XceYk_KUCut2cU4rTJV0-40" style="edgeStyle=orthogonalEdgeStyle;rounded=0;orthogonalLoop=1;jettySize=auto;html=1;exitX=0;exitY=0.75;exitDx=0;exitDy=0;entryX=1;entryY=0.75;entryDx=0;entryDy=0;" edge="1" parent="1" source="XceYk_KUCut2cU4rTJV0-37" target="XceYk_KUCut2cU4rTJV0-9">
          <mxGeometry relative="1" as="geometry" />
        </mxCell>
        <mxCell id="XceYk_KUCut2cU4rTJV0-43" value="Log output" style="edgeLabel;html=1;align=center;verticalAlign=middle;resizable=0;points=[];fontSize=9;" vertex="1" connectable="0" parent="XceYk_KUCut2cU4rTJV0-40">
          <mxGeometry x="0.1087" y="1" relative="1" as="geometry">
            <mxPoint as="offset" />
          </mxGeometry>
        </mxCell>
        <mxCell id="XceYk_KUCut2cU4rTJV0-37" value="Github CI/CD" style="rounded=0;whiteSpace=wrap;html=1;" vertex="1" parent="1">
          <mxGeometry x="340" y="200" width="120" height="60" as="geometry" />
        </mxCell>
        <mxCell id="XceYk_KUCut2cU4rTJV0-46" style="edgeStyle=orthogonalEdgeStyle;rounded=0;orthogonalLoop=1;jettySize=auto;html=1;exitX=0;exitY=0.75;exitDx=0;exitDy=0;entryX=1;entryY=0.75;entryDx=0;entryDy=0;" edge="1" parent="1" source="XceYk_KUCut2cU4rTJV0-44" target="XceYk_KUCut2cU4rTJV0-6">
          <mxGeometry relative="1" as="geometry" />
        </mxCell>
        <mxCell id="XceYk_KUCut2cU4rTJV0-47" value="Context-dependent&lt;br style=&quot;font-size: 9px;&quot;&gt;implementation" style="edgeLabel;html=1;align=center;verticalAlign=middle;resizable=0;points=[];fontSize=9;" vertex="1" connectable="0" parent="XceYk_KUCut2cU4rTJV0-46">
          <mxGeometry x="0.1837" y="1" relative="1" as="geometry">
            <mxPoint x="13" as="offset" />
          </mxGeometry>
        </mxCell>
        <mxCell id="XceYk_KUCut2cU4rTJV0-49" style="edgeStyle=orthogonalEdgeStyle;rounded=0;orthogonalLoop=1;jettySize=auto;html=1;exitX=0.75;exitY=1;exitDx=0;exitDy=0;entryX=0.75;entryY=0;entryDx=0;entryDy=0;" edge="1" parent="1" source="XceYk_KUCut2cU4rTJV0-44" target="XceYk_KUCut2cU4rTJV0-9">
          <mxGeometry relative="1" as="geometry" />
        </mxCell>
        <mxCell id="XceYk_KUCut2cU4rTJV0-53" value="Platform&lt;br style=&quot;font-size: 9px;&quot;&gt;versions" style="edgeLabel;html=1;align=center;verticalAlign=middle;resizable=0;points=[];fontSize=9;" vertex="1" connectable="0" parent="XceYk_KUCut2cU4rTJV0-49">
          <mxGeometry x="-0.1397" y="1" relative="1" as="geometry">
            <mxPoint y="4" as="offset" />
          </mxGeometry>
        </mxCell>
        <mxCell id="XceYk_KUCut2cU4rTJV0-44" value="Flutter Building" style="rounded=0;whiteSpace=wrap;html=1;" vertex="1" parent="1">
          <mxGeometry x="100" y="80" width="120" height="60" as="geometry" />
        </mxCell>
      </root>
    </mxGraphModel>
  </diagram>
</mxfile>
